<svg width="512" height="512" viewBox="0 0 512 512" fill="none" xmlns="http://www.w3.org/2000/svg">
  <rect x="36" y="36" width="440" height="440" rx="112" fill="url(#background)"/>
  <rect x="52" y="52" width="408" height="408" rx="96" stroke="url(#outline)" stroke-width="10" fill="none" opacity="0.55"/>

  <rect x="146" y="154" width="220" height="176" rx="42" fill="#F9FBFF"/>
  <rect x="146" y="154" width="220" height="176" rx="42" stroke="#C8D8F3" stroke-width="8"/>

  <rect x="184" y="126" width="32" height="56" rx="16" fill="#7FA7E8"/>
  <rect x="296" y="126" width="32" height="56" rx="16" fill="#7FA7E8"/>

  <circle cx="256" cy="242" r="72" fill="#EAF2FF" stroke="#86A9E7" stroke-width="10"/>
  <circle cx="256" cy="242" r="10" fill="#3C5F9C"/>
  <path d="M256 242V202" stroke="#3C5F9C" stroke-width="14" stroke-linecap="round"/>
  <path d="M256 242L292 262" stroke="#3C5F9C" stroke-width="14" stroke-linecap="round"/>

  <g filter="url(#badgeShadow)">
    <rect x="266" y="286" width="118" height="86" rx="34" fill="#0A84FF"/>
  </g>
  <path d="M300 329L323 350L352 314" stroke="#FFFFFF" stroke-width="18" stroke-linecap="round" stroke-linejoin="round"/>

  <defs>
    <linearGradient id="background" x1="92" y1="68" x2="412" y2="444" gradientUnits="userSpaceOnUse">
      <stop stop-color="#F3F7FF"/>
      <stop offset="0.55" stop-color="#DDEBFF"/>
      <stop offset="1" stop-color="#C8DCF8"/>
    </linearGradient>
    <linearGradient id="outline" x1="76" y1="60" x2="424" y2="460" gradientUnits="userSpaceOnUse">
      <stop stop-color="#FFFFFF"/>
      <stop offset="1" stop-color="#95B7EE"/>
    </linearGradient>
    <filter id="badgeShadow" x="246" y="270" width="158" height="126" filterUnits="userSpaceOnUse" color-interpolation-filters="sRGB">
      <feFlood flood-opacity="0" result="BackgroundImageFix"/>
      <feColorMatrix in="SourceAlpha" type="matrix" values="0 0 0 0 0 0 0 0 0 0 0 0 0 0 0 0 0 0 127 0" result="hardAlpha"/>
      <feOffset dy="8"/>
      <feGaussianBlur stdDeviation="10"/>
      <feColorMatrix type="matrix" values="0 0 0 0 0.0392157 0 0 0 0 0.517647 0 0 0 0 1 0 0 0 0.18 0"/>
      <feBlend mode="normal" in2="BackgroundImageFix" result="effect1_dropShadow_1_1"/>
      <feBlend mode="normal" in="SourceGraphic" in2="effect1_dropShadow_1_1" result="shape"/>
    </filter>
  </defs>
</svg>